<svg width="16" height="16" viewBox="0 0 16 16" fill="none" xmlns="http://www.w3.org/2000/svg">
<path d="M13.6666 6.79337H11.74C10.16 6.79337 8.87329 5.50671 8.87329 3.92671V2.00004C8.87329 1.63337 8.57329 1.33337 8.20663 1.33337H5.37996C3.32663 1.33337 1.66663 2.66671 1.66663 5.04671V10.9534C1.66663 13.3334 3.32663 14.6667 5.37996 14.6667H10.62C12.6733 14.6667 14.3333 13.3334 14.3333 10.9534V7.46004C14.3333 7.09337 14.0333 6.79337 13.6666 6.79337Z" fill="white"/>
<path d="M10.5334 1.47329C10.2601 1.19995 9.78674 1.38662 9.78674 1.76662V4.09329C9.78674 5.06662 10.6134 5.87329 11.6201 5.87329C12.2534 5.87995 13.1334 5.87995 13.8867 5.87995C14.2667 5.87995 14.4667 5.43329 14.2001 5.16662C13.2401 4.19995 11.5201 2.45995 10.5334 1.47329Z" fill="white"/>
</svg>
