<svg width="37" height="37" viewBox="0 0 37 37" fill="none" xmlns="http://www.w3.org/2000/svg">
<path d="M24.9595 3.08301H12.0403C6.42867 3.08301 3.08325 6.42842 3.08325 12.0401V24.9438C3.08325 30.5709 6.42867 33.9163 12.0403 33.9163H24.9441C30.5558 33.9163 33.9012 30.5709 33.9012 24.9593V12.0401C33.9166 6.42842 30.5712 3.08301 24.9595 3.08301ZM25.9308 21.953L19.317 28.5668C19.1012 28.7826 18.8083 28.9059 18.4999 28.9059C18.1916 28.9059 17.8987 28.7826 17.6828 28.5668L11.0691 21.953C10.622 21.5059 10.622 20.7659 11.0691 20.3188C11.5162 19.8718 12.2562 19.8718 12.7033 20.3188L17.3437 24.9593V9.24967C17.3437 8.61759 17.8678 8.09342 18.4999 8.09342C19.132 8.09342 19.6562 8.61759 19.6562 9.24967V24.9593L24.2966 20.3188C24.7437 19.8718 25.4837 19.8718 25.9308 20.3188C26.162 20.5501 26.2699 20.843 26.2699 21.1359C26.2699 21.4288 26.1466 21.7372 25.9308 21.953Z" fill="white"/>
</svg>
