<svg width="37" height="37" viewBox="0 0 37 37" fill="none" xmlns="http://www.w3.org/2000/svg">
<rect width="37" height="37" rx="18.5" fill="white"/>
<path d="M10.4776 17.4286C15.4712 15.253 18.801 13.8186 20.4671 13.1257C25.2242 11.147 26.2126 10.8033 26.8569 10.7919C26.9986 10.7895 27.3154 10.8246 27.5207 10.9911C27.694 11.1317 27.7416 11.3217 27.7645 11.455C27.7873 11.5883 27.8157 11.892 27.7931 12.1294C27.5353 14.8379 26.4199 21.4109 25.8524 24.4446C25.6123 25.7283 25.1395 26.1587 24.6818 26.2008C23.687 26.2923 22.9317 25.5434 21.9682 24.9118C20.4606 23.9236 19.6089 23.3084 18.1455 22.344C16.4543 21.2295 17.5506 20.617 18.5144 19.6159C18.7667 19.3539 23.1495 15.3674 23.2343 15.0057C23.245 14.9605 23.2548 14.7919 23.1546 14.7029C23.0545 14.6139 22.9067 14.6443 22.8 14.6685C22.6488 14.7028 20.2403 16.2947 15.5747 19.4442C14.891 19.9136 14.2718 20.1423 13.717 20.1304C13.1054 20.1171 11.9289 19.7845 11.0543 19.5002C9.98159 19.1515 9.129 18.9672 9.20324 18.375C9.24191 18.0665 9.66668 17.751 10.4776 17.4286Z" fill="#009DFF"/>
</svg>
